<svg xmlns="http://www.w3.org/2000/svg" xmlns:xlink="http://www.w3.org/1999/xlink" viewBox="0 0 318.33 318.33"><defs><style>.cls-1{isolation:isolate;}.cls-2{fill:#fff;}.cls-3{fill:#1b1217;}.cls-4{fill:#f59d07;}.cls-27,.cls-5,.cls-7{mix-blend-mode:multiply;}.cls-5{fill:url(#linear-gradient);}.cls-17,.cls-6,.cls-8{mix-blend-mode:screen;}.cls-6{fill:url(#linear-gradient-2);}.cls-7{fill:url(#linear-gradient-3);}.cls-9{fill:url(#linear-gradient-4);}.cls-10{fill:url(#linear-gradient-5);}.cls-11{fill:url(#linear-gradient-6);}.cls-12{fill:url(#linear-gradient-7);}.cls-13{fill:url(#linear-gradient-8);}.cls-14{fill:url(#linear-gradient-9);}.cls-15{fill:url(#linear-gradient-10);}.cls-16{fill:url(#linear-gradient-11);}.cls-17{fill:url(#linear-gradient-12);}.cls-18{fill:url(#linear-gradient-13);}.cls-19{fill:url(#linear-gradient-14);}.cls-20{fill:url(#linear-gradient-15);}.cls-21{fill:url(#linear-gradient-16);}.cls-22{fill:url(#linear-gradient-17);}.cls-23{fill:url(#Gradient_bez_nazwy_14);}.cls-24{fill:url(#Gradient_bez_nazwy_14-2);}.cls-25{fill:url(#Gradient_bez_nazwy_14-3);}.cls-26{opacity:0.31;}.cls-27{opacity:0.6;}</style><linearGradient id="linear-gradient" x1="163.26" y1="105.96" x2="163.26" y2="135.64" gradientUnits="userSpaceOnUse"><stop offset="0" stop-color="#f39825"/><stop offset="0.09" stop-color="#f5a745"/><stop offset="0.27" stop-color="#f8c17d"/><stop offset="0.44" stop-color="#fad7ab"/><stop offset="0.6" stop-color="#fce9d0"/><stop offset="0.76" stop-color="#fef5ea"/><stop offset="0.89" stop-color="#fffcf9"/><stop offset="1" stop-color="#fff"/></linearGradient><linearGradient id="linear-gradient-2" x1="160.49" y1="-3.96" x2="160.49" y2="116.21" gradientUnits="userSpaceOnUse"><stop offset="0" stop-color="#fff"/><stop offset="0.1" stop-color="#f9f9f9"/><stop offset="0.22" stop-color="#eaeaea"/><stop offset="0.36" stop-color="#d0d0d0"/><stop offset="0.51" stop-color="#ababab"/><stop offset="0.67" stop-color="#7d7d7d"/><stop offset="0.83" stop-color="#444"/><stop offset="1" stop-color="#010101"/><stop offset="1"/></linearGradient><linearGradient id="linear-gradient-3" x1="157.18" y1="87.58" x2="214.48" y2="162.3" xlink:href="#linear-gradient"/><linearGradient id="linear-gradient-4" x1="118.58" y1="117.14" x2="118.58" y2="71.23" gradientUnits="userSpaceOnUse"><stop offset="0"/><stop offset="0.1" stop-color="#060301"/><stop offset="0.23" stop-color="#150d03"/><stop offset="0.37" stop-color="#2f1e07"/><stop offset="0.52" stop-color="#54340d"/><stop offset="0.69" stop-color="#825214"/><stop offset="0.85" stop-color="#ba751c"/><stop offset="1" stop-color="#f39825"/></linearGradient><linearGradient id="linear-gradient-5" x1="112.84" y1="62.11" x2="112.84" y2="53.73" xlink:href="#linear-gradient-4"/><linearGradient id="linear-gradient-6" x1="130.35" y1="59.41" x2="130.35" y2="39.53" xlink:href="#linear-gradient-4"/><linearGradient id="linear-gradient-7" x1="107" y1="97.46" x2="107" y2="73.75" xlink:href="#linear-gradient-4"/><linearGradient id="linear-gradient-8" x1="182.8" y1="70.11" x2="182.8" y2="41.15" xlink:href="#linear-gradient-4"/><linearGradient id="linear-gradient-9" x1="179.17" y1="109.47" x2="179.17" y2="71.25" xlink:href="#linear-gradient-4"/><linearGradient id="linear-gradient-10" x1="148.32" y1="117.09" x2="148.32" y2="70.78" xlink:href="#linear-gradient-4"/><linearGradient id="linear-gradient-11" x1="154.31" y1="59.08" x2="154.31" y2="33.57" xlink:href="#linear-gradient-4"/><linearGradient id="linear-gradient-12" x1="160.1" y1="247.3" x2="160.1" y2="281.33" gradientUnits="userSpaceOnUse"><stop offset="0"/><stop offset="0.2" stop-color="#422000"/><stop offset="0.41" stop-color="#813f00"/><stop offset="0.61" stop-color="#b25700"/><stop offset="0.77" stop-color="#d56900"/><stop offset="0.91" stop-color="#eb7300"/><stop offset="1" stop-color="#f37700"/></linearGradient><linearGradient id="linear-gradient-13" x1="168.41" y1="248.74" x2="158.61" y2="258.54" gradientUnits="userSpaceOnUse"><stop offset="0" stop-color="#fff"/><stop offset="0.11" stop-color="#fffcf9"/><stop offset="0.24" stop-color="#fef5ea"/><stop offset="0.4" stop-color="#fce9d0"/><stop offset="0.56" stop-color="#fad7ab"/><stop offset="0.73" stop-color="#f8c17d"/><stop offset="0.91" stop-color="#f5a745"/><stop offset="1" stop-color="#f39825"/></linearGradient><linearGradient id="linear-gradient-14" x1="171.46" y1="257.44" x2="164.64" y2="264.26" xlink:href="#linear-gradient-13"/><linearGradient id="linear-gradient-15" x1="168.52" y1="260.75" x2="162.86" y2="273.18" xlink:href="#linear-gradient-13"/><linearGradient id="linear-gradient-16" x1="166.02" y1="280.8" x2="153.91" y2="267.87" xlink:href="#linear-gradient-13"/><linearGradient id="linear-gradient-17" x1="149.27" y1="270.39" x2="153.49" y2="261.59" xlink:href="#linear-gradient-13"/><linearGradient id="Gradient_bez_nazwy_14" x1="65.7" y1="115.64" x2="65.7" y2="210.43" gradientTransform="translate(1.89 6.14) rotate(0.65)" gradientUnits="userSpaceOnUse"><stop offset="0.25" stop-color="#fff"/><stop offset="0.33" stop-color="#fffcf9"/><stop offset="0.43" stop-color="#fef5ea"/><stop offset="0.55" stop-color="#fce9d0"/><stop offset="0.67" stop-color="#fad7ab"/><stop offset="0.8" stop-color="#f8c17d"/><stop offset="0.93" stop-color="#f5a745"/><stop offset="1" stop-color="#f39825"/></linearGradient><linearGradient id="Gradient_bez_nazwy_14-2" x1="164.02" y1="109.44" x2="164.02" y2="193.41" xlink:href="#Gradient_bez_nazwy_14"/><linearGradient id="Gradient_bez_nazwy_14-3" x1="250.81" y1="118.61" x2="250.81" y2="210.43" xlink:href="#Gradient_bez_nazwy_14"/></defs><title>Artboard 2 kopiaLOGONBA</title><g class="cls-1"><g id="OBJECTS"><path class="cls-2" d="M160,301.62c-4.36,0-22.71-12.5-23.49-13A286.76,286.76,0,0,1,95.4,254.33l-2.62.29-.25,2a4.52,4.52,0,0,1-3.94,3.91l-6.78.78c-8.91,1-21.11,2.42-28,3.51l-11.19,1.82a4.4,4.4,0,0,1-.73.06,4.49,4.49,0,0,1-4.31-5.77l1.31-4.46A36.85,36.85,0,0,0,40,240.67l-.06-.41a36.28,36.28,0,0,0-6.31-15.37l-2.46-3.48a4.48,4.48,0,0,1-.8-3.06c-.11-.31-.21-.63-.3-.94L10.41,147.59a19.23,19.23,0,0,1,2.44-15.78,20.09,20.09,0,0,1,11.24-8.43c3-.92,6.07-1.81,9.08-2.65a24.39,24.39,0,0,1,4.38-.81c0-.4,0-.8.07-1.19,0-2.71,1.94-3.78,5.08-5.51,1.62-.89,4.39-2.36,8.41-4.29,6.61-3.18,17.7-8.14,32.92-13.7A4.56,4.56,0,0,1,85.58,95a4.89,4.89,0,0,1,.54,0q-.09-1.8-.09-3.6a74.08,74.08,0,0,1,148.15,0q0,1.8-.09,3.6a4.89,4.89,0,0,1,.54,0,4.6,4.6,0,0,1,1.55.27c15.22,5.56,26.31,10.52,32.92,13.7,4,1.93,6.79,3.4,8.41,4.29,3.15,1.73,5.1,2.81,5.08,5.52,0,.12,0,.24,0,.36a20.05,20.05,0,0,1,7.27,6.56,24.06,24.06,0,0,1,3.61,9.59,693.12,693.12,0,0,1,9.85,78.55l0,.3a1.93,1.93,0,0,1,0,.24v.31a19.09,19.09,0,0,1-.85,5.87A19.39,19.39,0,0,1,293,232.05a19.17,19.17,0,0,1-9,2.26,18.52,18.52,0,0,1-2.11-.12,35.14,35.14,0,0,0-1.52,6.06l-.07.43a37,37,0,0,0,1.11,15.8l1.31,4.46a4.49,4.49,0,0,1-4.32,5.77,4.37,4.37,0,0,1-.72-.06l-11.21-1.82c-6.9-1.09-19.1-2.49-28-3.51l-6.79-.78a4.52,4.52,0,0,1-3.94-3.91l-.25-2-2.62-.29a286.76,286.76,0,0,1-41.14,34.26c-.78.53-19.13,13-23.49,13Z"/><path class="cls-2" d="M160.1,21.82a69.55,69.55,0,0,1,61.75,101.61,78,78,0,0,0,12.78-24c28.76,10.5,43.47,19.13,43.45,19.35.08,1.09.11,2.17.16,3.25a15.88,15.88,0,0,1,7.9,6.1,19.72,19.72,0,0,1,2.92,7.86,689.1,689.1,0,0,1,9.79,78.08l0,.31v.31a14.9,14.9,0,0,1-19.57,14.34l-.23-.07a40,40,0,0,0-3.22,10.57l-.06.43A41.12,41.12,0,0,0,277,257.74l1.31,4.47-11.21-1.82c-8.93-1.42-26-3.26-35-4.32l-.7-5.53c-2.87-.33-5.62-.63-8.33-.91-29.89,30.65-61.11,47.5-62.94,47.5a.1.1,0,0,1-.08,0s0,0-.07,0c-1.84,0-33-16.85-62.94-47.5-2.71.28-5.47.58-8.33.91l-.7,5.53c-9,1.06-26.05,2.9-35,4.32l-11.21,1.82,1.31-4.47A41.12,41.12,0,0,0,44.41,240l-.06-.43a40.81,40.81,0,0,0-7.08-17.27l-2.47-3.48.54-.09a14.57,14.57,0,0,1-1-2.53L14.74,146.37a14.71,14.71,0,0,1,1.9-12.12,15.67,15.67,0,0,1,8.75-6.57c3-.9,6-1.78,9-2.62a18.86,18.86,0,0,1,5.07-.72,17.41,17.41,0,0,1,2.41.19c.05-1.89.13-3.8.25-5.72,0-.22,14.7-8.85,43.46-19.35a77.61,77.61,0,0,0,5.81,13.4c.34,0,.68,0,1,0,.51,0,1,0,1.53.09A69.58,69.58,0,0,1,160.1,21.82m0-9A78.66,78.66,0,0,0,81.53,91.36c-14.9,5.47-25.81,10.36-32.37,13.52-4.11,2-7,3.48-8.63,4.4-.94.52-1.77,1-2.39,1.37A9.9,9.9,0,0,0,33.56,116c-.54.11-1.07.25-1.6.4-3.05.85-6.14,1.75-9.17,2.67a24.51,24.51,0,0,0-13.71,10.3,23.58,23.58,0,0,0-3,19.44L25.7,218.63c0,.12.07.24.1.36a9,9,0,0,0,1.66,5l2.46,3.48a31.89,31.89,0,0,1,5.53,13.45l.06.4a32.3,32.3,0,0,1-1,13.87l-1.31,4.47a9,9,0,0,0,8.63,11.53,10,10,0,0,0,1.45-.11l11.21-1.83c6.79-1.07,18.93-2.47,27.8-3.48l6.8-.78a9,9,0,0,0,6.53-4.1A291.27,291.27,0,0,0,134,292.3c6.79,4.64,12,7.76,15.2,9.55,7.05,4,8.87,4.28,10.83,4.28h.15c2,0,3.77-.3,10.82-4.27,3.19-1.8,8.42-4.92,15.21-9.56a291.27,291.27,0,0,0,38.35-31.39,9,9,0,0,0,6.53,4.1l6.8.78c8.87,1,21,2.41,27.84,3.49l11.17,1.82a10,10,0,0,0,1.44.11A9,9,0,0,0,287,259.68l-1.31-4.47a32.31,32.31,0,0,1-1-13.87l.07-.4c.11-.72.25-1.45.42-2.17a23.6,23.6,0,0,0,9.89-2.73,23.86,23.86,0,0,0,11.76-14.2,23.49,23.49,0,0,0,1-7.26v-.31c0-.15,0-.31,0-.46l0-.31a698.65,698.65,0,0,0-9.9-79,28.58,28.58,0,0,0-4.29-11.3,24.52,24.52,0,0,0-6.88-6.85,9.82,9.82,0,0,0-4.69-5.69c-.62-.38-1.45-.85-2.39-1.37-1.67-.92-4.52-2.43-8.63-4.4-6.56-3.16-17.47-8-32.37-13.52A78.67,78.67,0,0,0,160.1,12.82Z"/><path class="cls-3" d="M278.08,118.81c0-.22-14.69-8.85-43.45-19.35a78.38,78.38,0,0,1-149,0C56.82,110,42.11,118.59,42.12,118.81c-7.35,111.92,116.71,179.68,118,178.29C161.38,298.49,285.44,230.73,278.08,118.81Z"/><circle class="cls-3" cx="160.1" cy="91.39" r="69.57"/><circle class="cls-4" cx="160.1" cy="91.39" r="60.13"/><path class="cls-5" d="M160.1,151.52a60.15,60.15,0,0,0,55.23-36.31l-6.33-.45c-.41,0-.8,0-1.19,0a16.73,16.73,0,0,0-6.32,1.22,19.15,19.15,0,0,0-3.35,1.78,9,9,0,0,0-7.11-3.93q-5.21-.21-10.4-.35h-.26a8.8,8.8,0,0,0-5.87,2.23,8.92,8.92,0,0,0-6.1-2.46q-4,0-8,0h-2.55a8.86,8.86,0,0,0-6.85,3.2,17.07,17.07,0,0,0-9.89-3h-.48c-4.31.11-8.63.27-12.87.46h-.19l0,.29,0-.29a18.05,18.05,0,0,0-6.9,1.77,18.61,18.61,0,0,0-9.11,9.62c-.16.38-.28.77-.42,1.16A60,60,0,0,0,160.1,151.52Z"/><path class="cls-6" d="M218.07,77.56c0-.14-.06-.27-.1-.4-15.54-7.44-37.39-14.12-67-15.6,1.58-6.51,6-12.21,13-16.64,6.07-3.86,13.54-6.45,22-7.83a60.39,60.39,0,0,0-9.19-3.48,58.17,58.17,0,0,0-15.7,6.78c-8.54,5.43-13.87,12.64-15.54,21-3.35-.09-6.81-.11-10.36-.07A73.61,73.61,0,0,1,145.6,33a60.32,60.32,0,0,0-7.68,2.47,82.66,82.66,0,0,0-8.24,25.93c-2.52.1-5,.27-7.38.52a59,59,0,0,0,.54-17.74A62.22,62.22,0,0,0,118,48.5a58.3,58.3,0,0,1-1.24,14.24,81.14,81.14,0,0,0-10.82,2.57A58.44,58.44,0,0,0,103.2,72a71.79,71.79,0,0,1,12.3-3.54,139.18,139.18,0,0,1-5.1,14.06,190.18,190.18,0,0,0-8.4,24.42,59.35,59.35,0,0,0,3.5,9.68c2.06-12.5,6.26-23,9.89-32.1,2.52-6.28,4.72-11.8,5.88-17Q125,67,129,66.83c-2.4,20.75-2.9,49.85,6.87,76.46.4,1.1.84,2.17,1.27,3.23a59.17,59.17,0,0,0,7,2.32c-13.58-29.78-11.66-65.51-9.71-82.18,3.62,0,7.15,0,10.56,0C144.82,80,152.4,102.07,170.43,123a130.39,130.39,0,0,0,19.73,18.58q2.43-1.49,4.7-3.19a125.56,125.56,0,0,1-20.36-18.89c-16.39-19-24.3-40.12-24.18-52.57,31.22,1.52,53.48,8.91,68.65,16.74A60.75,60.75,0,0,0,218.07,77.56Z"/><path class="cls-7" d="M194.11,41.8a60.13,60.13,0,0,1-83.6,83.59,60.13,60.13,0,1,0,83.6-83.59Z"/><g class="cls-8"><path class="cls-9" d="M126.37,71.23l-1.58.15a143,143,0,0,1-5.48,15.24c-3.29,8.21-7,17.39-9.1,28.16A98.42,98.42,0,0,0,127,117.14,197.19,197.19,0,0,1,126.37,71.23Z"/><path class="cls-10" d="M115.79,53.73a57.48,57.48,0,0,0-5.9,8.38Q112.4,61.47,115,61A55.45,55.45,0,0,0,115.79,53.73Z"/><path class="cls-11" d="M126.81,43.71a58.14,58.14,0,0,1,.17,15.7l1-.06a87.37,87.37,0,0,1,5.95-19.82A56.57,56.57,0,0,0,126.81,43.71Z"/><path class="cls-12" d="M108.42,82.26c1.18-3,2.33-5.82,3.3-8.51a64.7,64.7,0,0,0-7.64,2.61,57.11,57.11,0,0,0-1.37,21.1C104.59,91.82,106.63,86.71,108.42,82.26Z"/><path class="cls-13" d="M209.28,63.34a57,57,0,0,0-21.65-22.19c-8.29,1.33-15.35,3.83-21,7.42a27,27,0,0,0-10.3,11c19,1.29,36.3,4.82,51.73,10.51A46.87,46.87,0,0,0,209.28,63.34Z"/><path class="cls-14" d="M203.7,81c-14.51-5.31-30.94-8.58-49.07-9.75,1,9.58,6.19,23.89,16.31,38.22C185.57,103,197.17,93,203.7,81Z"/><path class="cls-15" d="M142.84,70.8c-1.07,0-2.16,0-3.25,0h-1.37a188.15,188.15,0,0,0,.77,46.31,96.5,96.5,0,0,0,20.5-3.49C148.33,97,143.57,81.34,142.84,70.8Z"/><path class="cls-16" d="M159.24,33.57a57,57,0,0,0-9.07.74A68.41,68.41,0,0,0,140,59c1.37,0,2.72,0,4,0,2.37-8.08,8-15.1,16.32-20.41a55.35,55.35,0,0,1,8.33-4.32A56.84,56.84,0,0,0,159.24,33.57Z"/></g><path class="cls-3" d="M103.53,68.56a79,79,0,0,1,15-4A52.79,52.79,0,0,0,119.37,46q2.22-2,4.64-3.77a55.68,55.68,0,0,1,.13,21.56c2.38-.25,4.85-.42,7.37-.52a80.62,80.62,0,0,1,10.61-30.17,59.24,59.24,0,0,1,7.79-1.83C144.14,39,139.25,49.35,137,63.11c3.55,0,7,0,10.36.06,1.67-8.31,7-15.52,15.54-21a60.36,60.36,0,0,1,19.29-7.68,60.5,60.5,0,0,1,8.28,4c-9.59,1.24-18,4-24.68,8.25-7,4.43-11.4,10.13-13,16.64,29.62,1.49,51.48,8.17,67,15.61a59.84,59.84,0,0,1,1,6.48c-15.17-7.83-37.43-15.22-68.65-16.74-.11,12.45,7.79,33.55,24.18,52.57a125.56,125.56,0,0,0,20.36,18.89q-2.26,1.71-4.7,3.19a130.39,130.39,0,0,1-19.73-18.58c-18-20.91-25.61-43-25.47-56.27-3.41-.09-6.94-.1-10.56-.05-1.95,16.68-3.88,52.45,9.73,82.24a59.42,59.42,0,0,1-6.89-2c-.48-1.18-1-2.35-1.4-3.56-9.76-26.61-9.27-55.71-6.87-76.46q-4,.21-7.7.68c-1.16,5.16-3.36,10.68-5.88,17-3.9,9.75-8.48,21.17-10.33,34.93a60.75,60.75,0,0,1-4-8.61c2.33-10.82,6.06-20.14,9.34-28.32a140,140,0,0,0,5.1-14,68.47,68.47,0,0,0-16.09,5.1A59.5,59.5,0,0,1,103.53,68.56Z"/><path class="cls-17" d="M193.37,247.29v17.28c-4.79,3.87-9.33,7.27-13.48,10.22v-28C184.48,246.9,188.94,247.07,193.37,247.29Zm13,.82v5.22c1.69-1.55,3.38-3.16,5.08-4.81C209.78,248.37,208.09,248.24,206.41,248.11Zm-46.31-1.55-6.74,0v36.85c1.74,1.06,3.28,2,4.59,2.7l2.15,1,2.16-1c1.31-.74,2.85-1.64,4.59-2.7V246.58Zm-33.26.73v17.28c4.79,3.88,9.33,7.28,13.48,10.22v-28C135.73,246.9,131.27,247.07,126.84,247.29Zm-18.13,1.23c1.7,1.65,3.4,3.26,5.09,4.81v-5.22C112.12,248.24,110.42,248.37,108.71,248.52Z"/><path class="cls-3" d="M275.86,239.56a40.81,40.81,0,0,1,7.08-17.27l2.47-3.48L274,217c-3.45-.54-7-1.07-10.94-1.63l.85-13.43h-8.18c-31.9-4.23-63.45.7-95.63.7A735.67,735.67,0,0,0,63.53,209l-7.1.94.72,5.41c-3.92.56-7.5,1.09-10.94,1.63L34.8,218.81l2.47,3.48a40.81,40.81,0,0,1,7.08,17.27l.06.43a41.12,41.12,0,0,1-1.23,17.75l-1.31,4.47,11.21-1.82c8.93-1.42,26-3.26,35-4.32l.7-5.53a560.1,560.1,0,0,1,71.34-4,560.15,560.15,0,0,1,71.35,4l.7,5.53c9,1.06,26,2.9,35,4.32l11.21,1.82L277,257.74A41.12,41.12,0,0,1,275.8,240Z"/><polygon class="cls-2" points="160.1 272.04 151.69 276.47 153.3 267.1 146.49 260.47 155.9 259.1 160.1 250.58 164.31 259.1 173.71 260.47 166.91 267.1 168.51 276.47 160.1 272.04"/><polygon class="cls-18" points="160.1 250.58 160.1 263.52 164.31 259.1 160.1 250.58"/><polygon class="cls-19" points="173.71 260.47 160.1 263.52 166.91 267.1 173.71 260.47"/><polygon class="cls-20" points="168.51 276.47 160.1 263.52 160.1 272.04 168.51 276.47"/><polygon class="cls-21" points="151.69 276.47 160.1 263.52 160.1 272.04 151.69 276.47"/><polygon class="cls-22" points="146.49 260.47 160.1 263.52 153.3 267.1 146.49 260.47"/><path class="cls-3" d="M92.41,124.82a3.44,3.44,0,0,1,1.93.58,2.7,2.7,0,0,1,1.3,2l9.57,72.1a3,3,0,0,1-.59,2.25,2.83,2.83,0,0,1-1.93,1.2c-2.51.39-5,.81-7.54,1.25a5.67,5.67,0,0,1-1,.09,3.29,3.29,0,0,1-2-.59,18.51,18.51,0,0,1-1.66-1.3A443.76,443.76,0,0,0,49.35,163.8q5.48,22.48,11,45a3.06,3.06,0,0,1-.35,2.3,2.94,2.94,0,0,1-1.8,1.43c-2.87.79-5.72,1.62-8.57,2.48a2.83,2.83,0,0,1-.85.13,2.89,2.89,0,0,1-1.4-.38,2.85,2.85,0,0,1-1.42-1.8L26.3,143.12a2.76,2.76,0,0,1,.42-2.36,3.73,3.73,0,0,1,2.13-1.59q4.38-1.32,8.78-2.55a6.74,6.74,0,0,1,1.83-.28,3.77,3.77,0,0,1,1.68.36,22.48,22.48,0,0,1,2,1.08,457.55,457.55,0,0,1,43.05,38.16l-7.68-45.72a2.78,2.78,0,0,1,.66-2.3,3.66,3.66,0,0,1,2.27-1.33c3.45-.61,6.89-1.18,10.35-1.72a4.44,4.44,0,0,1,.62-.05m0-12A17,17,0,0,0,90,113c-3.53.55-7.1,1.14-10.61,1.77a15.6,15.6,0,0,0-9.5,5.59,14.76,14.76,0,0,0-3.17,11.84l1.83,10.87q-8.8-7.59-18-14.76l-.42-.32-.45-.29a30.82,30.82,0,0,0-3.23-1.79,15.69,15.69,0,0,0-7-1.58,18.86,18.86,0,0,0-5.07.72c-3,.84-6,1.72-9,2.62a15.67,15.67,0,0,0-8.75,6.57,14.71,14.71,0,0,0-1.9,12.12l19.62,69.82a15,15,0,0,0,14.38,10.93,15.1,15.1,0,0,0,4.31-.64c2.75-.83,5.55-1.64,8.31-2.41A15.15,15.15,0,0,0,72,205.94l-1.76-7.19q5.92,5.82,11.57,11.84l.32.34.35.32a30.33,30.33,0,0,0,2.7,2.14,15.3,15.3,0,0,0,9,2.87,17.63,17.63,0,0,0,3-.27c2.42-.43,4.88-.83,7.31-1.21a14.87,14.87,0,0,0,9.79-6,15,15,0,0,0,2.78-10.9l-9.57-72.1a14.6,14.6,0,0,0-6.65-10.45,15.54,15.54,0,0,0-8.47-2.52Z"/><path class="cls-3" d="M162.17,119.45c3.1,0,6.2,0,9.3.1a34.67,34.67,0,0,1,13.68,2.68,24.74,24.74,0,0,1,8.48,6,19.86,19.86,0,0,1,4.21,7.55,21.07,21.07,0,0,1,.88,7.36,17.51,17.51,0,0,1-1.44,5.93,17.72,17.72,0,0,1-2.68,4.31,21,21,0,0,1-3,2.9,13.49,13.49,0,0,1-2.31,1.54,23.92,23.92,0,0,1,6.29,7.17c1.82,3.05,2.52,6.79,2.16,11.21a24.49,24.49,0,0,1-2.25,8.35,24.79,24.79,0,0,1-5.11,7.23,23.63,23.63,0,0,1-7.72,5,24.43,24.43,0,0,1-9.36,1.69h-.9q-5.17-.13-10.35-.14-12.1,0-24.21.76h-.19a2.77,2.77,0,0,1-1.93-.77,3,3,0,0,1-1-2.07l-4.56-72.65a2.78,2.78,0,0,1,.9-2.21,3.55,3.55,0,0,1,2.39-1.06q14.32-.9,28.68-.9m-13.89,31.67q6.93-.23,13.86-.22c2.5,0,5,0,7.51.07h.66c3.85,0,6.71-.63,8.6-1.94a7.65,7.65,0,0,0,3.18-6.35,7.49,7.49,0,0,0-2.71-6.61c-1.94-1.54-5.09-2.38-9.43-2.46-2.6,0-5.2-.07-7.79-.07q-7.2,0-14.37.23.24,8.68.49,17.35m.94,33.35q6.43-.21,12.88-.21,3.94,0,7.89.08h.59c3.81,0,6.65-.77,8.55-2.38a9,9,0,0,0,3.19-6.79,8.77,8.77,0,0,0-2.76-7.12c-2-1.89-5.06-2.91-9.21-3q-4.11-.07-8.23-.08-6.72,0-13.45.22.27,9.63.55,19.26m12.95-77c-9.77,0-19.68.31-29.43.92a15.56,15.56,0,0,0-10.12,4.54,14.72,14.72,0,0,0-4.39,11.46L122.78,197a15,15,0,0,0,4.92,10.21,14.82,14.82,0,0,0,10,3.88l.94,0c7.78-.48,15.67-.73,23.46-.73,3.33,0,6.7.05,10,.14h1.22a36.63,36.63,0,0,0,13.9-2.58,35.51,35.51,0,0,0,11.6-7.56,37,37,0,0,0,10.91-23.16c.56-7-.73-13.12-3.83-18.32l-.19-.32a31.69,31.69,0,0,0,2.47-4.46,29.34,29.34,0,0,0,2.48-10,32.75,32.75,0,0,0-1.3-11.59,31.9,31.9,0,0,0-6.69-12.11,36.43,36.43,0,0,0-12.55-9.09,46.4,46.4,0,0,0-18.42-3.77c-3.17-.06-6.38-.1-9.55-.1Z"/><path class="cls-3" d="M258,129.69a6.54,6.54,0,0,1,1.4.16q7,1.52,13.9,3.23a4.55,4.55,0,0,1,2.81,1.7,8.14,8.14,0,0,1,1.1,3.24,678.4,678.4,0,0,1,9.65,76.89,2.59,2.59,0,0,1-.13.78,2.85,2.85,0,0,1-1.46,1.76,2.79,2.79,0,0,1-1.35.36,2.83,2.83,0,0,1-.9-.15c-2.52-.83-5-1.62-7.57-2.39a4.23,4.23,0,0,1-2.7-1.81,5.75,5.75,0,0,1-.68-2.13q-.68-6.71-1.49-13.4-17.33-4.85-34.91-8.11-3.44,5.72-6.75,11.48a5.64,5.64,0,0,1-1.48,1.63,3,3,0,0,1-1.94.55,8,8,0,0,1-1.22-.11q-3.87-.63-7.76-1.18A2.83,2.83,0,0,1,214.6,201a3,3,0,0,1-.6-2.24,2.8,2.8,0,0,1,.2-.77,642.74,642.74,0,0,1,39.7-65.4,7.51,7.51,0,0,1,2.3-2.45,3.37,3.37,0,0,1,1.82-.46m10.62,53.14q-2.47-17.22-5.86-34.47-10,14.13-19.23,28.65,12.62,2.52,25.09,5.82M258,117.69h0A15.52,15.52,0,0,0,250,119.9a19.3,19.3,0,0,0-6,6,658.12,658.12,0,0,0-40.34,66.48l-.13.25-.12.26a14.39,14.39,0,0,0-1.25,4.4A15,15,0,0,0,205,208.19a14.84,14.84,0,0,0,9.88,5.88c2.5.36,5,.74,7.52,1.15a20.14,20.14,0,0,0,3.14.26,14.89,14.89,0,0,0,9.38-3.13,17.83,17.83,0,0,0,4.48-5.12c.76-1.33,1.53-2.67,2.31-4,6,1.25,12,2.64,17.92,4.17.18,1.7.36,3.4.53,5.09a18.07,18.07,0,0,0,1.94,6.43c1.32,2.59,4.12,6.07,9.9,7.83,2.44.74,4.9,1.52,7.33,2.31a14.69,14.69,0,0,0,11.57-1,14.92,14.92,0,0,0,8-13.35v-.31l0-.31A689.1,689.1,0,0,0,289.06,136a19.72,19.72,0,0,0-2.92-7.86,16.2,16.2,0,0,0-9.92-6.72c-4.72-1.17-9.52-2.29-14.26-3.32a19.31,19.31,0,0,0-3.94-.43Z"/><path class="cls-23" d="M48.74,217.12a4.78,4.78,0,0,1-2.38-.64,4.87,4.87,0,0,1-2.37-3L24.37,143.66a4.76,4.76,0,0,1,.67-4,5.64,5.64,0,0,1,3.23-2.42c2.9-.88,5.87-1.74,8.82-2.57a9.07,9.07,0,0,1,2.37-.35,5.79,5.79,0,0,1,2.56.56,22.34,22.34,0,0,1,2.21,1.2l.07.05.07.06a462.78,462.78,0,0,1,38.82,33.93l-6.66-39.59a4.84,4.84,0,0,1,1.08-3.89,5.75,5.75,0,0,1,3.48-2c3.45-.61,6.94-1.19,10.39-1.72a5.94,5.94,0,0,1,.93-.08,5.39,5.39,0,0,1,3,.9,4.65,4.65,0,0,1,2.2,3.38l9.57,72.11a5.05,5.05,0,0,1-1,3.69,4.89,4.89,0,0,1-3.24,2c-2.51.39-5,.8-7.5,1.24a7.82,7.82,0,0,1-1.33.12,5.29,5.29,0,0,1-3.16-1,22.82,22.82,0,0,1-1.83-1.44l-.11-.11a445,445,0,0,0-36.34-34.51l9.52,39.08a5.05,5.05,0,0,1-.56,3.77,4.94,4.94,0,0,1-3,2.36c-2.82.78-5.69,1.61-8.53,2.47A5,5,0,0,1,48.74,217.12Z"/><path class="cls-2" d="M92.41,124.82a3.44,3.44,0,0,1,1.93.58,2.7,2.7,0,0,1,1.3,2l9.57,72.1a3,3,0,0,1-.59,2.25,2.83,2.83,0,0,1-1.93,1.2c-2.51.39-5,.81-7.54,1.25a5.67,5.67,0,0,1-1,.09,3.29,3.29,0,0,1-2-.59,18.51,18.51,0,0,1-1.66-1.3A443.76,443.76,0,0,0,49.35,163.8q5.48,22.48,11,45a3.06,3.06,0,0,1-.35,2.3,2.94,2.94,0,0,1-1.8,1.43c-2.87.79-5.72,1.62-8.57,2.48a2.83,2.83,0,0,1-.85.13,2.89,2.89,0,0,1-1.4-.38,2.85,2.85,0,0,1-1.42-1.8L26.3,143.12a2.76,2.76,0,0,1,.42-2.36,3.73,3.73,0,0,1,2.13-1.59q4.38-1.32,8.78-2.55a6.74,6.74,0,0,1,1.83-.28,3.77,3.77,0,0,1,1.68.36,22.48,22.48,0,0,1,2,1.08,457.55,457.55,0,0,1,43.05,38.16l-7.68-45.72a2.78,2.78,0,0,1,.66-2.3,3.66,3.66,0,0,1,2.27-1.33c3.45-.61,6.89-1.18,10.35-1.72a4.44,4.44,0,0,1,.62-.05m0-4a8.75,8.75,0,0,0-1.24.1c-3.46.54-7,1.12-10.43,1.74a7.65,7.65,0,0,0-4.68,2.74,6.87,6.87,0,0,0-1.5,5.48l.86,5.11,4.79,28.5C69.24,154,57.63,144,45.61,134.63l-.14-.11-.15-.1a24.68,24.68,0,0,0-2.42-1.31,7.69,7.69,0,0,0-3.44-.77,10.58,10.58,0,0,0-2.91.43c-2.95.82-5.92,1.69-8.85,2.57a7.74,7.74,0,0,0-4.34,3.25,6.73,6.73,0,0,0-.91,5.62l6,21.26L42.07,214a7,7,0,0,0,6.67,5.09,6.88,6.88,0,0,0,2-.3c2.81-.85,5.66-1.67,8.49-2.46a6.86,6.86,0,0,0,4.19-3.28,7,7,0,0,0,.77-5.25l-3.65-15-4.39-18c11,9.62,21.57,19.77,31.46,30.3l.11.11.11.11c.46.41,1.08.9,2,1.58a7.26,7.26,0,0,0,4.33,1.35,9.68,9.68,0,0,0,1.67-.15c2.47-.44,5-.85,7.47-1.23a6.87,6.87,0,0,0,4.55-2.8,7,7,0,0,0,1.31-5.14l-4.44-33.49L99.6,126.84a6.73,6.73,0,0,0-3.08-4.8,7.48,7.48,0,0,0-4.11-1.22Z"/><path class="cls-24" d="M137.69,201.11a4.78,4.78,0,0,1-3.27-1.29,5,5,0,0,1-1.66-3.43l-4.55-72.65a4.77,4.77,0,0,1,1.47-3.75,5.66,5.66,0,0,1,3.68-1.64c9.55-.59,19.24-.9,28.81-.9,3.1,0,6.24,0,9.34.1A36.67,36.67,0,0,1,186,120.41a26.67,26.67,0,0,1,9.16,6.55,22,22,0,0,1,4.62,8.31,23.07,23.07,0,0,1,1,8.07A19.51,19.51,0,0,1,199.1,150a20,20,0,0,1-3,4.78,23.26,23.26,0,0,1-3.25,3.16l-.2.16a28.3,28.3,0,0,1,4.67,6,20.56,20.56,0,0,1,2.44,12.39,26.92,26.92,0,0,1-8,16.84,25.41,25.41,0,0,1-8.37,5.42,26.59,26.59,0,0,1-10.11,1.84h-1c-3.42-.09-6.88-.14-10.3-.14-8,0-16.1.26-24.08.75Zm13.47-18.7c3.64-.1,7.32-.15,11-.15,2.62,0,5.29,0,7.92.08h.55c3.33,0,5.77-.64,7.26-1.9a7.07,7.07,0,0,0,2.49-5.36,6.85,6.85,0,0,0-2.15-5.58c-1.62-1.55-4.27-2.37-7.87-2.44-2.71,0-5.46-.08-8.18-.08-3.78,0-7.61,0-11.4.16Zm-.94-33.35c4-.1,8-.16,11.92-.16,2.52,0,5,0,7.55.07h.62c3.44,0,5.95-.53,7.46-1.58a5.75,5.75,0,0,0,2.33-4.8,5.52,5.52,0,0,0-2-5c-1.59-1.26-4.43-2-8.23-2-2.57,0-5.18-.07-7.75-.07-4.09,0-8.22.06-12.32.17Z"/><path class="cls-2" d="M162.17,119.45c3.1,0,6.2,0,9.3.1a34.67,34.67,0,0,1,13.68,2.68,24.74,24.74,0,0,1,8.48,6,19.86,19.86,0,0,1,4.21,7.55,21.07,21.07,0,0,1,.88,7.36,17.51,17.51,0,0,1-1.44,5.93,17.72,17.72,0,0,1-2.68,4.31,21,21,0,0,1-3,2.9,13.49,13.49,0,0,1-2.31,1.54,23.92,23.92,0,0,1,6.29,7.17c1.82,3.05,2.52,6.79,2.16,11.21a24.49,24.49,0,0,1-2.25,8.35,24.79,24.79,0,0,1-5.11,7.23,23.63,23.63,0,0,1-7.72,5,24.43,24.43,0,0,1-9.36,1.69h-.9q-5.17-.13-10.35-.14-12.1,0-24.21.76h-.19a2.77,2.77,0,0,1-1.93-.77,3,3,0,0,1-1-2.07l-4.56-72.65a2.78,2.78,0,0,1,.9-2.21,3.55,3.55,0,0,1,2.39-1.06q14.32-.9,28.68-.9m-13.89,31.67q6.93-.23,13.86-.22c2.5,0,5,0,7.51.07h.66c3.85,0,6.71-.63,8.6-1.94a7.65,7.65,0,0,0,3.18-6.35,7.49,7.49,0,0,0-2.71-6.61c-1.94-1.54-5.09-2.38-9.43-2.46-2.6,0-5.2-.07-7.79-.07q-7.2,0-14.37.23.24,8.68.49,17.35m.94,33.35q6.43-.21,12.88-.21,3.94,0,7.89.08h.59c3.81,0,6.65-.77,8.55-2.38a9,9,0,0,0,3.19-6.79,8.77,8.77,0,0,0-2.76-7.12c-2-1.89-5.06-2.91-9.21-3q-4.11-.07-8.23-.08-6.72,0-13.45.22.27,9.63.55,19.26m12.95-69c-9.61,0-19.34.31-28.93.91a7.61,7.61,0,0,0-5,2.22,6.81,6.81,0,0,0-2.06,5.29L127,136l3.8,60.51a6.93,6.93,0,0,0,2.31,4.79,6.74,6.74,0,0,0,4.61,1.8h.44c7.94-.5,16-.75,24-.75,3.4,0,6.84.05,10.24.14h1a28.56,28.56,0,0,0,10.87-2,27.64,27.64,0,0,0,9-5.84,28.85,28.85,0,0,0,5.93-8.4,28.43,28.43,0,0,0,2.61-9.71A22.47,22.47,0,0,0,199.05,163a32.52,32.52,0,0,0-3.47-4.79,28.42,28.42,0,0,0,2-2.15,22,22,0,0,0,3.29-5.26,21.45,21.45,0,0,0,1.79-7.29,25.11,25.11,0,0,0-1-8.77,23.93,23.93,0,0,0-5-9.07,28.65,28.65,0,0,0-9.84-7.06,38.58,38.58,0,0,0-15.26-3c-3.11-.06-6.27-.1-9.38-.1ZM151.9,137.66c3.42-.08,6.85-.12,10.26-.12,2.56,0,5.16,0,7.72.07,4.45.08,6.31,1,7,1.6s1.29,1.3,1.21,3.29-.83,2.8-1.48,3.25c-.8.56-2.54,1.22-6.31,1.22h-.58c-2.52-.05-5.08-.07-7.59-.07-3.31,0-6.65,0-10,.12l-.26-9.36Zm.88,31.44c3.12-.07,6.25-.11,9.34-.11,2.71,0,5.45,0,8.15.08,3,.06,5.3.71,6.54,1.89a4.82,4.82,0,0,1,1.52,4,5.11,5.11,0,0,1-1.78,3.92c-1.11.93-3.17,1.43-6,1.43h-.51c-2.64-.05-5.32-.08-8-.08-3,0-6,0-9,.1l-.32-11.26Z"/><path class="cls-25" d="M283.94,219.81a5,5,0,0,1-1.52-.25c-2.53-.83-5.06-1.63-7.53-2.38a6,6,0,0,1-3.9-2.81,7.84,7.84,0,0,1-.9-2.87c-.4-4-.84-8-1.32-12-10.56-2.92-21.33-5.42-32.08-7.46-2,3.37-4,6.81-6,10.25a7.56,7.56,0,0,1-2,2.21,5,5,0,0,1-3.18,1,9.6,9.6,0,0,1-1.54-.13c-2.53-.41-5.12-.81-7.72-1.18a4.78,4.78,0,0,1-3.26-2,5,5,0,0,1-.61-5.05,646.59,646.59,0,0,1,39.86-65.7,9.39,9.39,0,0,1,2.91-3,5.38,5.38,0,0,1,2.86-.75,8.55,8.55,0,0,1,1.82.21c4.64,1,9.34,2.09,14,3.24a6.48,6.48,0,0,1,4,2.53,10,10,0,0,1,1.4,4.05,678.36,678.36,0,0,1,9.67,77.05v.1a5.13,5.13,0,0,1-.21,1.41,5,5,0,0,1-4.73,3.53ZM246.8,175.63c6.48,1.34,13,2.85,19.42,4.51-1.32-8.92-2.83-17.9-4.51-26.79C256.59,160.67,251.59,168.13,246.8,175.63Z"/><path class="cls-2" d="M258,129.69a6.54,6.54,0,0,1,1.4.16q7,1.52,13.9,3.23a4.55,4.55,0,0,1,2.81,1.7,8.14,8.14,0,0,1,1.1,3.24,678.4,678.4,0,0,1,9.65,76.89,2.59,2.59,0,0,1-.13.78,2.85,2.85,0,0,1-1.46,1.76,2.79,2.79,0,0,1-1.35.36,2.83,2.83,0,0,1-.9-.15c-2.52-.83-5-1.62-7.57-2.39a4.23,4.23,0,0,1-2.7-1.81,5.75,5.75,0,0,1-.68-2.13q-.68-6.71-1.49-13.4-17.33-4.85-34.91-8.11-3.44,5.72-6.75,11.48a5.64,5.64,0,0,1-1.48,1.63,3,3,0,0,1-1.94.55,8,8,0,0,1-1.22-.11q-3.87-.63-7.76-1.18A2.83,2.83,0,0,1,214.6,201a3,3,0,0,1-.6-2.24,2.8,2.8,0,0,1,.2-.77,642.74,642.74,0,0,1,39.7-65.4,7.51,7.51,0,0,1,2.3-2.45,3.37,3.37,0,0,1,1.82-.46m10.62,53.14q-2.47-17.22-5.86-34.47-10,14.13-19.23,28.65,12.62,2.52,25.09,5.82M258,125.69h0a7.36,7.36,0,0,0-3.9,1,11.3,11.3,0,0,0-3.55,3.65,647.53,647.53,0,0,0-39.9,65.76l0,.08,0,.08a6.58,6.58,0,0,0-.55,2,7,7,0,0,0,1.37,5.13,6.76,6.76,0,0,0,4.58,2.74c2.55.36,5.14.76,7.68,1.17a11.22,11.22,0,0,0,1.86.16,6.9,6.9,0,0,0,4.42-1.41,9.76,9.76,0,0,0,2.5-2.82c1.7-3,3.46-6,5.25-9,9.79,1.89,19.61,4.17,29.25,6.8.42,3.55.81,7.12,1.17,10.66a9.84,9.84,0,0,0,1.1,3.55,8,8,0,0,0,5.1,3.81c2.49.76,5,1.56,7.49,2.37a7,7,0,0,0,8.78-4.6,6.51,6.51,0,0,0,.3-2v-.2a681.57,681.57,0,0,0-9.7-77.28,11.74,11.74,0,0,0-1.7-4.79,8.38,8.38,0,0,0-5.18-3.37c-4.64-1.15-9.36-2.25-14-3.26a11.31,11.31,0,0,0-2.25-.25Zm-8,48.58c3.43-5.32,7-10.61,10.57-15.84,1.15,6.34,2.21,12.7,3.18,19-4.56-1.14-9.16-2.21-13.75-3.19Z"/><g class="cls-26"><path d="M85.43,171.41l.81.8q-3.69-21.92-7.37-43.84a2.64,2.64,0,0,0-.36,1.85Q82,150.82,85.43,171.41Z"/><path d="M60,207.4a2.9,2.9,0,0,1-1.77,1.38q-4.29,1.18-8.57,2.48a2.82,2.82,0,0,1-2.25-.25,2.88,2.88,0,0,1-1.42-1.8Q36.35,175,26.72,140.75h0a2.76,2.76,0,0,0-.42,2.36l19.62,69.82a2.85,2.85,0,0,0,1.42,1.8,2.78,2.78,0,0,0,2.25.25c2.85-.86,5.7-1.69,8.57-2.48a2.94,2.94,0,0,0,1.8-1.43,3.06,3.06,0,0,0,.35-2.3Z"/><path d="M105,197.52a3.24,3.24,0,0,1-.28.47,2.86,2.86,0,0,1-1.93,1.2q-3.78.59-7.55,1.25a3.77,3.77,0,0,1-3-.5,20.11,20.11,0,0,1-1.66-1.3,443.76,443.76,0,0,0-41.18-38.57c.39,1.58.77,3.15,1.15,4.73a443,443,0,0,1,40,37.57,18.51,18.51,0,0,0,1.66,1.3,3.76,3.76,0,0,0,3,.5c2.51-.44,5-.86,7.54-1.25a2.83,2.83,0,0,0,1.93-1.2,3,3,0,0,0,.59-2.25C105.12,198.82,105,198.17,105,197.52Z"/><path d="M197.33,145.38a18,18,0,0,1-2.68,4.31,21.62,21.62,0,0,1-3,2.9,13.49,13.49,0,0,1-2.31,1.54,19.32,19.32,0,0,1,2.4,2.08,21.7,21.7,0,0,0,2.83-2.79,17.72,17.72,0,0,0,2.68-4.31,17.51,17.51,0,0,0,1.44-5.93,18.31,18.31,0,0,0-.05-3A17.21,17.21,0,0,1,197.33,145.38Z"/><path d="M179.6,164.33c-2-1.89-5.06-2.91-9.2-3q-10.85-.21-21.68.14c0,1.24.07,2.48.1,3.72q10.77-.34,21.53-.13c4.15.08,7.23,1.1,9.21,3a8.6,8.6,0,0,1,2.63,4.89,11.83,11.83,0,0,0,.18-1.5A8.81,8.81,0,0,0,179.6,164.33Z"/><path d="M170,133.61c4.34.08,7.49.92,9.43,2.46a7,7,0,0,1,2.58,4.4,11.88,11.88,0,0,0,.18-1.53,7.52,7.52,0,0,0-2.72-6.6c-1.94-1.54-5.09-2.38-9.43-2.46q-11.09-.19-22.16.16c0,1.25.07,2.49.1,3.73Q158.94,133.42,170,133.61Z"/><path d="M195.57,180.85a24.52,24.52,0,0,1-5.11,7.24,23.53,23.53,0,0,1-7.72,5,25.13,25.13,0,0,1-10.26,1.68q-17.28-.47-34.56.62a2.77,2.77,0,0,1-2.11-.77,2.94,2.94,0,0,1-1-2.08q-2.19-35.06-4.4-70.12a2.73,2.73,0,0,0-.2,1.21l4.56,72.65a3,3,0,0,0,1,2.07,2.79,2.79,0,0,0,2.12.77q17.26-1.08,34.56-.62a25,25,0,0,0,10.26-1.68,23.63,23.63,0,0,0,7.72-5,24.79,24.79,0,0,0,5.11-7.23,24.49,24.49,0,0,0,2.25-8.35,24.88,24.88,0,0,0,0-3.65A24.41,24.41,0,0,1,195.57,180.85Z"/><path d="M262.78,148.36q3,15.3,5.27,30.58l.63.16q-2.48-17.22-5.85-34.47-10,14.12-19.23,28.64l2.07.44Q253.91,160.89,262.78,148.36Z"/><path d="M286.68,212.25a2.84,2.84,0,0,1-1.35,1.47,2.78,2.78,0,0,1-2.25.21c-2.52-.83-5-1.62-7.56-2.39a4.23,4.23,0,0,1-2.71-1.81,5.92,5.92,0,0,1-.68-2.14q-.67-6.69-1.49-13.39-17.33-4.84-34.91-8.12-3.43,5.71-6.75,11.49a5.74,5.74,0,0,1-1.47,1.63,4,4,0,0,1-3.16.44c-2.59-.42-5.17-.81-7.76-1.18a2.79,2.79,0,0,1-1.94-1.18l0,0-.42.76a2.8,2.8,0,0,0-.2.77,3,3,0,0,0,.6,2.24,2.83,2.83,0,0,0,1.94,1.18q3.89.56,7.76,1.18a4,4,0,0,0,3.16-.44,5.64,5.64,0,0,0,1.48-1.63q3.31-5.78,6.75-11.48,17.56,3.27,34.91,8.11.81,6.7,1.49,13.4a5.75,5.75,0,0,0,.68,2.13,4.23,4.23,0,0,0,2.7,1.81c2.53.77,5,1.56,7.57,2.39a2.78,2.78,0,0,0,2.25-.21,2.85,2.85,0,0,0,1.46-1.76,2.59,2.59,0,0,0,.13-.78C286.82,214,286.74,213.13,286.68,212.25Z"/></g><path class="cls-4" d="M52,253.31q13.62-2.16,27.3-3.77-5.4-2.08-10.88-4.09,3.52-12.66,7.42-25.29-14.27,1.68-28.46,3.93C50.51,228.57,53.49,248.07,52,253.31Z"/><path class="cls-4" d="M268.26,253.31q-13.62-2.16-27.3-3.77,5.4-2.08,10.88-4.09-3.53-12.66-7.42-25.29,14.25,1.68,28.46,3.93C269.7,228.57,266.72,248.07,268.26,253.31Z"/><path class="cls-4" d="M251.84,245.45a697.36,697.36,0,0,0-183.47,0q-2-14.65-3.89-29.32a726.3,726.3,0,0,1,191.25,0Q253.78,230.79,251.84,245.45Z"/><g class="cls-27"><path class="cls-4" d="M89.75,219.41a8.48,8.48,0,0,1,5.94,1.2,6.42,6.42,0,0,1,2.48,5,6.7,6.7,0,0,1-1.59,5.4,8.41,8.41,0,0,1-5.52,2.35l-4.82.51.69,6.91a.86.86,0,0,1-.18.62.79.79,0,0,1-.54.31l-2.42.27a.81.81,0,0,1-.59-.18.89.89,0,0,1-.3-.57q-1.07-10-2.12-20a.81.81,0,0,1,.19-.61.79.79,0,0,1,.55-.32Q85.65,219.83,89.75,219.41ZM85.85,230l4.7-.5a5,5,0,0,0,2.69-1,2.77,2.77,0,0,0,.82-2.54,2.6,2.6,0,0,0-1.25-2.3A5,5,0,0,0,90,223.3l-4.73.5Q85.53,226.89,85.85,230Z"/><path class="cls-4" d="M113.26,217.41a8.34,8.34,0,0,1,5.95,1.44,6.38,6.38,0,0,1,2.25,4.89,7.15,7.15,0,0,1-.81,3.94,6.22,6.22,0,0,1-2.86,2.55q2.31,3.72,4.57,7.44a.71.71,0,0,1,.11.34.67.67,0,0,1-.17.49.59.59,0,0,1-.45.23l-2.54.15a1.13,1.13,0,0,1-.9-.24,2.17,2.17,0,0,1-.44-.52c-1.45-2.33-2.9-4.66-4.38-7l-4,.29c.17,2.41.33,4.83.5,7.24a.85.85,0,0,1-.2.61.74.74,0,0,1-.55.29l-2.42.19a.76.76,0,0,1-.59-.2A.87.87,0,0,1,106,239q-.75-10-1.48-20.07a.81.81,0,0,1,.2-.61.79.79,0,0,1,.56-.29Q109.29,217.69,113.26,217.41Zm-4,10.12,4.4-.31a5.38,5.38,0,0,0,2.73-.8,2.54,2.54,0,0,0,.9-2.43,2.44,2.44,0,0,0-1.17-2.27,5.6,5.6,0,0,0-2.83-.41l-4.44.32C109,223.6,109.17,225.57,109.31,227.53Z"/><path class="cls-4" d="M128.27,224.7a11.24,11.24,0,0,1,.51-3.31,7.59,7.59,0,0,1,1.57-2.75,7.76,7.76,0,0,1,2.7-1.92,10.37,10.37,0,0,1,3.92-.81,10.61,10.61,0,0,1,3.93.53,7.73,7.73,0,0,1,2.82,1.74,7.88,7.88,0,0,1,1.74,2.64,10.84,10.84,0,0,1,.74,3.29c0,.39.05.83.07,1.3s0,1,0,1.48,0,1,0,1.48,0,.92,0,1.31a11.42,11.42,0,0,1-.59,3.3,7.61,7.61,0,0,1-1.58,2.72,7.75,7.75,0,0,1-2.67,1.86,11.78,11.78,0,0,1-7.66.26,7.41,7.41,0,0,1-4.51-4.29,11.46,11.46,0,0,1-.79-3.25c0-.4-.07-.83-.1-1.31s-.05-1-.08-1.48,0-1,0-1.48S128.26,225.1,128.27,224.7Zm13.81-.34a5,5,0,0,0-1.51-3.44,4.79,4.79,0,0,0-3.48-1.12,4.83,4.83,0,0,0-3.41,1.35,4.92,4.92,0,0,0-1.29,3.53q0,1.19,0,2.64c0,1,.09,1.84.16,2.62a5,5,0,0,0,1.53,3.41,5.37,5.37,0,0,0,6.78-.23,5,5,0,0,0,1.32-3.5c0-.79,0-1.67,0-2.63S142.14,225.15,142.08,224.36Z"/><path class="cls-4" d="M165,219.74q-5,0-10.06,0a.85.85,0,0,1-.83-.84c0-.74,0-1.47,0-2.21a.81.81,0,0,1,.24-.59.78.78,0,0,1,.58-.26q6.74,0,13.45,0a.78.78,0,0,1,.58.26.82.82,0,0,1,.24.59q-.08,6.6-.16,13.18c0,2.68-.78,4.69-2.23,6a8.75,8.75,0,0,1-6.19,2,11.22,11.22,0,0,1-3.67-.54,7.33,7.33,0,0,1-2.55-1.46,6.11,6.11,0,0,1-1.54-2.17,8.41,8.41,0,0,1-.63-2.67.7.7,0,0,1,.22-.61.82.82,0,0,1,.59-.24l2.45,0a1,1,0,0,1,.5.16.69.69,0,0,1,.32.43,4.17,4.17,0,0,0,.43,1.21,3.44,3.44,0,0,0,.81,1.05,4,4,0,0,0,1.27.71,5.63,5.63,0,0,0,1.81.26,4.34,4.34,0,0,0,3.19-1.11,4.43,4.43,0,0,0,1.14-3.26Z"/><path class="cls-4" d="M191,234.46a.79.79,0,0,1,.56.27.85.85,0,0,1,.21.6l-.09,2.21a.8.8,0,0,1-.27.58.77.77,0,0,1-.58.23q-6.57-.3-13.14-.47a.77.77,0,0,1-.56-.27.84.84,0,0,1-.23-.6q.24-10,.46-20.12a.89.89,0,0,1,.26-.59.8.8,0,0,1,.6-.23q6.64.17,13.28.47a.85.85,0,0,1,.8.88c0,.74-.07,1.48-.1,2.21a.81.81,0,0,1-.27.58.83.83,0,0,1-.59.23q-5-.23-9.91-.38c0,1.65-.09,3.3-.14,4.95,3.06.1,6.12.21,9.17.35a.77.77,0,0,1,.57.27.8.8,0,0,1,.22.6l-.09,2.21a.8.8,0,0,1-.27.58.78.78,0,0,1-.59.23c-3-.14-6.08-.25-9.12-.35,0,1.73-.09,3.45-.14,5.17C184.38,234.18,187.7,234.3,191,234.46Z"/><path class="cls-4" d="M212,232.71a.89.89,0,0,1,.36-.58.82.82,0,0,1,.58-.16l2.44.19a.86.86,0,0,1,.57.28.71.71,0,0,1,.18.63,7.89,7.89,0,0,1-.81,2.49,6.42,6.42,0,0,1-1.77,2.17,8.39,8.39,0,0,1-2.84,1.47,11,11,0,0,1-4,.37,10,10,0,0,1-3.61-.88,7.85,7.85,0,0,1-2.6-1.94,8.07,8.07,0,0,1-1.58-2.83,11.55,11.55,0,0,1-.56-3.49c0-.79,0-1.66.08-2.62s.11-1.82.19-2.61a11.5,11.5,0,0,1,.93-3.41,7.61,7.61,0,0,1,4.78-4.22,10,10,0,0,1,3.79-.39,11.28,11.28,0,0,1,4,.95,8.67,8.67,0,0,1,2.68,1.89,6.55,6.55,0,0,1,1.47,2.45,8.3,8.3,0,0,1,.43,2.58.71.71,0,0,1-.27.59.86.86,0,0,1-.61.18l-2.47-.19a1,1,0,0,1-.56-.25.86.86,0,0,1-.3-.63,3.44,3.44,0,0,0-.34-1.25,3.87,3.87,0,0,0-.84-1.12,4.76,4.76,0,0,0-1.42-.87,6.46,6.46,0,0,0-2.07-.44,5.21,5.21,0,0,0-2.1.23,4.4,4.4,0,0,0-1.55.9,4.23,4.23,0,0,0-1,1.43,6.46,6.46,0,0,0-.49,1.81q-.12,1.19-.21,2.61c0,1-.08,1.83-.09,2.62a6.6,6.6,0,0,0,.28,1.87,4.28,4.28,0,0,0,.81,1.54,4.51,4.51,0,0,0,1.4,1.09,5.13,5.13,0,0,0,2,.51,6.2,6.2,0,0,0,2.07-.15,4.85,4.85,0,0,0,1.51-.65,3.73,3.73,0,0,0,1-1A3.47,3.47,0,0,0,212,232.71Z"/><path class="cls-4" d="M238.69,220.29a.79.79,0,0,1,.55.32.81.81,0,0,1,.19.61l-.24,2.2a.77.77,0,0,1-.3.56.8.8,0,0,1-.61.19l-5.5-.61-1.65,17a.81.81,0,0,1-.3.57.75.75,0,0,1-.59.18l-2.42-.24a.81.81,0,0,1-.54-.31.84.84,0,0,1-.18-.61l1.56-17c-1.84-.19-3.67-.36-5.51-.53a.81.81,0,0,1-.56-.3.85.85,0,0,1-.2-.61l.19-2.21a.79.79,0,0,1,.29-.56.77.77,0,0,1,.61-.2Q231.09,219.44,238.69,220.29Z"/><path class="cls-4" d="M89.75,219.41a8.48,8.48,0,0,1,5.94,1.2,6.42,6.42,0,0,1,2.48,5,6.7,6.7,0,0,1-1.59,5.4,8.41,8.41,0,0,1-5.52,2.35l-4.82.51.69,6.91a.86.86,0,0,1-.18.62.79.79,0,0,1-.54.31l-2.42.27a.81.81,0,0,1-.59-.18.89.89,0,0,1-.3-.57q-1.07-10-2.12-20a.81.81,0,0,1,.19-.61.79.79,0,0,1,.55-.32Q85.65,219.83,89.75,219.41ZM85.85,230l4.7-.5a5,5,0,0,0,2.69-1,2.77,2.77,0,0,0,.82-2.54,2.6,2.6,0,0,0-1.25-2.3A5,5,0,0,0,90,223.3l-4.73.5Q85.53,226.89,85.85,230Z"/><path class="cls-4" d="M113.26,217.41a8.34,8.34,0,0,1,5.95,1.44,6.38,6.38,0,0,1,2.25,4.89,7.15,7.15,0,0,1-.81,3.94,6.22,6.22,0,0,1-2.86,2.55q2.31,3.72,4.57,7.44a.71.71,0,0,1,.11.34.67.67,0,0,1-.17.49.59.59,0,0,1-.45.23l-2.54.15a1.13,1.13,0,0,1-.9-.24,2.17,2.17,0,0,1-.44-.52c-1.45-2.33-2.9-4.66-4.38-7l-4,.29c.17,2.41.33,4.83.5,7.24a.85.85,0,0,1-.2.61.74.74,0,0,1-.55.29l-2.42.19a.76.76,0,0,1-.59-.2A.87.87,0,0,1,106,239q-.75-10-1.48-20.07a.81.81,0,0,1,.2-.61.79.79,0,0,1,.56-.29Q109.29,217.69,113.26,217.41Zm-4,10.12,4.4-.31a5.38,5.38,0,0,0,2.73-.8,2.54,2.54,0,0,0,.9-2.43,2.44,2.44,0,0,0-1.17-2.27,5.6,5.6,0,0,0-2.83-.41l-4.44.32C109,223.6,109.17,225.57,109.31,227.53Z"/><path class="cls-4" d="M128.27,224.7a11.24,11.24,0,0,1,.51-3.31,7.59,7.59,0,0,1,1.57-2.75,7.76,7.76,0,0,1,2.7-1.92,10.37,10.37,0,0,1,3.92-.81,10.61,10.61,0,0,1,3.93.53,7.73,7.73,0,0,1,2.82,1.74,7.88,7.88,0,0,1,1.74,2.64,10.84,10.84,0,0,1,.74,3.29c0,.39.05.83.07,1.3s0,1,0,1.48,0,1,0,1.48,0,.92,0,1.31a11.42,11.42,0,0,1-.59,3.3,7.61,7.61,0,0,1-1.58,2.72,7.75,7.75,0,0,1-2.67,1.86,11.78,11.78,0,0,1-7.66.26,7.41,7.41,0,0,1-4.51-4.29,11.46,11.46,0,0,1-.79-3.25c0-.4-.07-.83-.1-1.31s-.05-1-.08-1.48,0-1,0-1.48S128.26,225.1,128.27,224.7Zm13.81-.34a5,5,0,0,0-1.51-3.44,4.79,4.79,0,0,0-3.48-1.12,4.83,4.83,0,0,0-3.41,1.35,4.92,4.92,0,0,0-1.29,3.53q0,1.19,0,2.64c0,1,.09,1.84.16,2.62a5,5,0,0,0,1.53,3.41,5.37,5.37,0,0,0,6.78-.23,5,5,0,0,0,1.32-3.5c0-.79,0-1.67,0-2.63S142.14,225.15,142.08,224.36Z"/><path class="cls-4" d="M165,219.74q-5,0-10.06,0a.85.85,0,0,1-.83-.84c0-.74,0-1.47,0-2.21a.81.81,0,0,1,.24-.59.78.78,0,0,1,.58-.26q6.74,0,13.45,0a.78.78,0,0,1,.58.26.82.82,0,0,1,.24.59q-.08,6.6-.16,13.18c0,2.68-.78,4.69-2.23,6a8.75,8.75,0,0,1-6.19,2,11.22,11.22,0,0,1-3.67-.54,7.33,7.33,0,0,1-2.55-1.46,6.11,6.11,0,0,1-1.54-2.17,8.41,8.41,0,0,1-.63-2.67.7.7,0,0,1,.22-.61.82.82,0,0,1,.59-.24l2.45,0a1,1,0,0,1,.5.16.69.69,0,0,1,.32.43,4.17,4.17,0,0,0,.43,1.21,3.44,3.44,0,0,0,.81,1.05,4,4,0,0,0,1.27.71,5.63,5.63,0,0,0,1.81.26,4.34,4.34,0,0,0,3.19-1.11,4.43,4.43,0,0,0,1.14-3.26Z"/><path class="cls-4" d="M191,234.46a.79.79,0,0,1,.56.27.85.85,0,0,1,.21.6l-.09,2.21a.8.8,0,0,1-.27.58.77.77,0,0,1-.58.23q-6.57-.3-13.14-.47a.77.77,0,0,1-.56-.27.84.84,0,0,1-.23-.6q.24-10,.46-20.12a.89.89,0,0,1,.26-.59.8.8,0,0,1,.6-.23q6.64.17,13.28.47a.85.85,0,0,1,.8.88c0,.74-.07,1.48-.1,2.21a.81.81,0,0,1-.27.58.83.83,0,0,1-.59.23q-5-.23-9.91-.38c0,1.65-.09,3.3-.14,4.95,3.06.1,6.12.21,9.17.35a.77.77,0,0,1,.57.27.8.8,0,0,1,.22.6l-.09,2.21a.8.8,0,0,1-.27.58.78.78,0,0,1-.59.23c-3-.14-6.08-.25-9.12-.35,0,1.73-.09,3.45-.14,5.17C184.38,234.18,187.7,234.3,191,234.46Z"/><path class="cls-4" d="M212,232.71a.89.89,0,0,1,.36-.58.82.82,0,0,1,.58-.16l2.44.19a.86.86,0,0,1,.57.28.71.71,0,0,1,.18.63,7.89,7.89,0,0,1-.81,2.49,6.42,6.42,0,0,1-1.77,2.17,8.39,8.39,0,0,1-2.84,1.47,11,11,0,0,1-4,.37,10,10,0,0,1-3.61-.88,7.85,7.85,0,0,1-2.6-1.94,8.07,8.07,0,0,1-1.58-2.83,11.55,11.55,0,0,1-.56-3.49c0-.79,0-1.66.08-2.62s.11-1.82.19-2.61a11.5,11.5,0,0,1,.93-3.41,7.61,7.61,0,0,1,4.78-4.22,10,10,0,0,1,3.79-.39,11.28,11.28,0,0,1,4,.95,8.67,8.67,0,0,1,2.68,1.89,6.55,6.55,0,0,1,1.47,2.45,8.3,8.3,0,0,1,.43,2.58.71.71,0,0,1-.27.59.86.86,0,0,1-.61.18l-2.47-.19a1,1,0,0,1-.56-.25.86.86,0,0,1-.3-.63,3.44,3.44,0,0,0-.34-1.25,3.87,3.87,0,0,0-.84-1.12,4.76,4.76,0,0,0-1.42-.87,6.46,6.46,0,0,0-2.07-.44,5.21,5.21,0,0,0-2.1.23,4.4,4.4,0,0,0-1.55.9,4.23,4.23,0,0,0-1,1.43,6.46,6.46,0,0,0-.49,1.81q-.12,1.19-.21,2.61c0,1-.08,1.83-.09,2.62a6.6,6.6,0,0,0,.28,1.87,4.28,4.28,0,0,0,.81,1.54,4.51,4.51,0,0,0,1.4,1.09,5.13,5.13,0,0,0,2,.51,6.2,6.2,0,0,0,2.07-.15,4.85,4.85,0,0,0,1.51-.65,3.73,3.73,0,0,0,1-1A3.47,3.47,0,0,0,212,232.71Z"/><path class="cls-4" d="M238.69,220.29a.79.79,0,0,1,.55.32.81.81,0,0,1,.19.61l-.24,2.2a.77.77,0,0,1-.3.56.8.8,0,0,1-.61.19l-5.5-.61-1.65,17a.81.81,0,0,1-.3.57.75.75,0,0,1-.59.18l-2.42-.24a.81.81,0,0,1-.54-.31.84.84,0,0,1-.18-.61l1.56-17c-1.84-.19-3.67-.36-5.51-.53a.81.81,0,0,1-.56-.3.85.85,0,0,1-.2-.61l.19-2.21a.79.79,0,0,1,.29-.56.77.77,0,0,1,.61-.2Q231.09,219.44,238.69,220.29Z"/></g><path class="cls-2" d="M86.75,217.41a9.12,9.12,0,0,1,6.19,1.2,6.36,6.36,0,0,1,2.59,5,6.52,6.52,0,0,1-1.66,5.4,8.94,8.94,0,0,1-5.75,2.35l-5,.51.72,6.91a.82.82,0,0,1-.19.62.84.84,0,0,1-.56.31l-2.52.27a.87.87,0,0,1-.62-.18.82.82,0,0,1-.31-.57q-1.11-10-2.21-20a.77.77,0,0,1,.19-.61.85.85,0,0,1,.58-.32Q82.46,217.83,86.75,217.41ZM82.68,228l4.9-.5a5.32,5.32,0,0,0,2.81-1,2.69,2.69,0,0,0,.85-2.54,2.57,2.57,0,0,0-1.3-2.3,5.47,5.47,0,0,0-3-.39l-4.94.5Q82.36,224.89,82.68,228Z"/><path class="cls-2" d="M111.26,215.41q4-.25,6.2,1.44a6.23,6.23,0,0,1,2.35,4.89,6.83,6.83,0,0,1-.85,3.94,6.36,6.36,0,0,1-3,2.55q2.4,3.72,4.76,7.44a.87.87,0,0,1,.12.34.7.7,0,0,1-.65.72l-2.65.15a1.22,1.22,0,0,1-.94-.24,2.32,2.32,0,0,1-.46-.52c-1.5-2.33-3-4.66-4.56-7l-4.19.29c.17,2.41.34,4.83.52,7.24a.86.86,0,0,1-.21.61.8.8,0,0,1-.58.29l-2.52.19a.81.81,0,0,1-.61-.2.85.85,0,0,1-.3-.58q-.77-10-1.54-20.07a.78.78,0,0,1,.21-.61A.84.84,0,0,1,103,216Q107.12,215.69,111.26,215.41Zm-4.12,10.12,4.6-.31a5.8,5.8,0,0,0,2.84-.8,2.51,2.51,0,0,0,.94-2.43,2.42,2.42,0,0,0-1.23-2.27,6,6,0,0,0-2.94-.41l-4.63.32Z"/><path class="cls-2" d="M126.91,222.7a10.63,10.63,0,0,1,.54-3.31,7.44,7.44,0,0,1,1.63-2.75,8.14,8.14,0,0,1,2.81-1.92,11.26,11.26,0,0,1,4.09-.81,11.47,11.47,0,0,1,4.1.53,8.08,8.08,0,0,1,2.94,1.74,8,8,0,0,1,1.82,2.64,10.29,10.29,0,0,1,.76,3.29c0,.39.06.83.08,1.3s0,1,0,1.48,0,1,0,1.48,0,.92,0,1.31a10.79,10.79,0,0,1-.61,3.3,7.62,7.62,0,0,1-1.65,2.72,8.08,8.08,0,0,1-2.79,1.86,11.16,11.16,0,0,1-4,.77,11.29,11.29,0,0,1-4-.51,8.17,8.17,0,0,1-2.88-1.68,7.63,7.63,0,0,1-1.82-2.61,10.56,10.56,0,0,1-.82-3.25c0-.4-.08-.83-.11-1.31s-.06-1-.08-1.48,0-1,0-1.48S126.9,223.1,126.91,222.7Zm14.4-.34a4.83,4.83,0,0,0-1.57-3.44,5.85,5.85,0,0,0-7.19.23,4.87,4.87,0,0,0-1.35,3.53c0,.79,0,1.67,0,2.64s.1,1.84.17,2.62a4.84,4.84,0,0,0,1.59,3.41,5.79,5.79,0,0,0,7.07-.23,4.87,4.87,0,0,0,1.38-3.5c0-.79,0-1.67,0-2.63S141.38,223.15,141.31,222.36Z"/><path class="cls-2" d="M165.22,217.74q-5.24,0-10.49,0a.84.84,0,0,1-.61-.25.79.79,0,0,1-.26-.59c0-.74,0-1.47,0-2.21a.78.78,0,0,1,.25-.59.85.85,0,0,1,.61-.26q7,0,14,0a.83.83,0,0,1,.61.26.79.79,0,0,1,.25.59q-.09,6.6-.17,13.18,0,4-2.33,6a9.34,9.34,0,0,1-6.44,2,12.07,12.07,0,0,1-3.83-.54,7.93,7.93,0,0,1-2.67-1.46,6.16,6.16,0,0,1-1.6-2.17,8.44,8.44,0,0,1-.66-2.67.7.7,0,0,1,.23-.61.89.89,0,0,1,.61-.24l2.56,0a1.08,1.08,0,0,1,.52.16.69.69,0,0,1,.34.43,4.2,4.2,0,0,0,.44,1.21,3.57,3.57,0,0,0,.85,1.05,4.1,4.1,0,0,0,1.33.71,6.09,6.09,0,0,0,1.88.26A4.65,4.65,0,0,0,164,231a4.34,4.34,0,0,0,1.19-3.26Z"/><path class="cls-2" d="M192.33,232.46a.84.84,0,0,1,.59.27.82.82,0,0,1,.22.6l-.1,2.21a.8.8,0,0,1-.27.58.83.83,0,0,1-.61.23q-6.84-.3-13.7-.47a.81.81,0,0,1-.58-.27.77.77,0,0,1-.24-.6l.48-20.12a.86.86,0,0,1,.27-.59.84.84,0,0,1,.62-.23q6.93.17,13.85.47a.85.85,0,0,1,.6.28.8.8,0,0,1,.23.6c0,.74-.07,1.48-.1,2.21a.79.79,0,0,1-.28.58.89.89,0,0,1-.62.23q-5.16-.23-10.32-.38l-.15,4.95c3.19.1,6.37.21,9.56.35a.84.84,0,0,1,.59.27.81.81,0,0,1,.23.6c0,.74-.07,1.48-.1,2.21a.77.77,0,0,1-.28.58.82.82,0,0,1-.61.23c-3.17-.14-6.34-.25-9.51-.35l-.15,5.17C185.41,232.18,188.87,232.3,192.33,232.46Z"/><path class="cls-2" d="M214.19,230.71a.86.86,0,0,1,.37-.58.88.88,0,0,1,.6-.16l2.55.19a.89.89,0,0,1,.59.28.69.69,0,0,1,.19.63,8,8,0,0,1-.84,2.49,6.56,6.56,0,0,1-1.85,2.17,8.88,8.88,0,0,1-3,1.47,11.88,11.88,0,0,1-4.19.37,10.82,10.82,0,0,1-3.76-.88,8.2,8.2,0,0,1-2.71-1.94,7.91,7.91,0,0,1-1.65-2.83,11.25,11.25,0,0,1-.58-3.49c0-.79,0-1.66.08-2.62s.12-1.82.2-2.61a11,11,0,0,1,1-3.41,7.86,7.86,0,0,1,2-2.62,8.19,8.19,0,0,1,3-1.6,10.85,10.85,0,0,1,4-.39,12.11,12.11,0,0,1,4.22.95,8.88,8.88,0,0,1,2.79,1.89,6.46,6.46,0,0,1,1.53,2.45,7.82,7.82,0,0,1,.46,2.58.7.7,0,0,1-.29.59.91.91,0,0,1-.64.18l-2.57-.19a1.07,1.07,0,0,1-.59-.25.86.86,0,0,1-.3-.63,3.69,3.69,0,0,0-.36-1.25,3.85,3.85,0,0,0-.88-1.12,4.86,4.86,0,0,0-1.48-.87,6.93,6.93,0,0,0-2.15-.44,5.69,5.69,0,0,0-2.2.23,4.58,4.58,0,0,0-1.61.9,4.06,4.06,0,0,0-1,1.43,6.17,6.17,0,0,0-.51,1.81c-.09.79-.16,1.66-.22,2.61s-.09,1.83-.09,2.62a6.26,6.26,0,0,0,.28,1.87,4.36,4.36,0,0,0,.85,1.54,4.65,4.65,0,0,0,1.46,1.09,5.55,5.55,0,0,0,2.11.51,6.67,6.67,0,0,0,2.15-.15,5,5,0,0,0,1.57-.65,3.8,3.8,0,0,0,1-1A3.55,3.55,0,0,0,214.19,230.71Z"/><path class="cls-2" d="M242,218.29a.85.85,0,0,1,.58.32.77.77,0,0,1,.19.61l-.24,2.2a.79.79,0,0,1-.32.56.87.87,0,0,1-.64.19l-5.73-.61q-.85,8.5-1.72,17a.86.86,0,0,1-.31.57.82.82,0,0,1-.62.18l-2.52-.24a.88.88,0,0,1-.57-.31.8.8,0,0,1-.19-.61q.83-8.5,1.63-17c-1.91-.19-3.83-.36-5.74-.53a.87.87,0,0,1-.59-.3.81.81,0,0,1-.2-.61l.19-2.21a.78.78,0,0,1,.31-.56.82.82,0,0,1,.63-.2Q234.12,217.44,242,218.29Z"/></g></g></svg>